<svg data-name="Layer 1" xmlns="http://www.w3.org/2000/svg" viewBox="0 0 5368.13 1152.04"><title>Zeekit-logo-black PNG</title><path d="M4128.3 167.48c-38.79 0-75.38-.27-112 .12-19.22.2-34.28 9.5-46.38 24-3.41 4.09-6.87 8.15-10.4 12.14q-117.64 133.35-235.44 266.65c-17.86 20.22-35.8 40.37-53.54 60.7-11.68 13.39-25.93 21.32-43.75 23.43-17 2-33.94 1.33-50.91 1.39-14.43.05-12.68 2.38-12.69-12.56q-.07-183 0-366c0-11.06 1.08-10.42-10-10.42h-98c-13.81 0-12-1.58-12 12.39v867.91c.17 6.89.18 7 7.28 7q52.48.07 105 0c7.63 0 7.64-.11 7.78-7.53v-385a62.87 62.87 0 0 0 0-7c-.59-5.45 2-6.67 7-6.59 17.66.26 35.33.13 53 .09 27.22 0 48.62 10 66.85 31.37 76 88.88 153 176.81 229.68 265.13 25.11 28.93 50.58 57.56 75 87.11 12.19 14.79 26.58 22.49 45.57 22.43 34.67-.12 69.33 0 104-.1 2 0 4.74 1.3 6.2-2l-46.74-55.74q-150.71-179.52-301.3-359.14c-16.39-19.61-32.81-38.65-59.18-47.92 21.18-11 35.93-27 50.51-43.53q158-179 316.5-357.69c5.54-6.34 11.16-12.86 17.96-20.64zM1948.46 610.02v432c0 14-2.29 12.38 11.86 12.38q262 .06 524 0a41.7 41.7 0 0 1 5 0c5.37.69 6.63-1.74 6.61-6.84-.12-26.66.17-53.32.2-80 0-12.73 1.44-11.22-11.09-11.23h-408c-7.92 0-7.91.64-7.91-7.31v-287c0-7.92.12-8 8.32-8h328c9.62 0 9 1.18 9-9.21 0-24.67.08-49.33 0-74-.06-13 1.88-11.11-10.94-11.12q-161-.07-322 0c-2.66 0-5.33-.08-8 0-2.91.1-4.34-1.19-4.33-4.1v-280c0-11.71-1-10.53 10.92-10.54h408c7.61 0 7.72-.15 7.73-7.64q.08-39 0-78c0-12.39 0-12.4-12-12.4h-522.95c-14.81 0-12.34-1.09-12.35 12q-.12 215.48-.07 431.01zm747.34.75v381c0 18.67.16 37.33-.11 56-.07 5.07 1.17 7.49 6.58 6.69a40.06 40.06 0 0 1 6 0h526c9.08 0 8.89.89 9-8.41.16-25.65.54-51.3.58-77 0-14.65 2.12-12.62-12.68-12.62q-202.48-.09-405 0c-10.5 0-9.63.55-9.63-8.67v-285c0-9-.5-8.74 8.7-8.67h328c9.92 0 9 .54 9-9.3 0-24.67.08-49.33 0-74 0-12.49 2-11-11.14-11h-325c-9.64 0-9.53 1-9.53-8.88v-277c0-8.67.08-8.68 8.67-8.78h411c6.85-.19 7-.21 7-7.41q.09-39.49 0-79c0-13.15 1.56-11.61-11.81-11.61h-524c-13.42 0-11.53-1.6-11.54 11.74q-.08 215.91 0 431.89zM1604.15 266.26c-2.23 3.22-3.87 5.63-5.56 8l-402.77 565.76q-45.21 63.51-90.44 127c-10.17 14.23-16.41 29.51-15.36 47.42.55 9.3.1 18.66.1 28 0 11.9 0 11.9 12.33 11.9h642c13.27-.15 11.3 1.31 11.34-10.93.1-24 0-48 0-72 0-15.1 0-15.1-15.29-15.1q-240 0-480-.06c-3.34 0-7 1.07-10.38-1.31 1.46-2.11 2.56-3.75 3.71-5.37q166.64-234 333.26-468.09 80.31-112.75 160.64-225.46c10.18-14.27 16-29.75 15.48-47.47-.27-9.66 0-19.33-.06-29-.14-14.46 1.91-12.55-12.86-12.55q-312-.06-624 0h-5c-7.39.15-7.48.15-7.5 7.83 0 26-.09 52 0 78 0 14.07-1.93 12.2 12.07 12.2q232.5.07 465 .07c3.95-.03 7.95-.71 13.29 1.16zM4295.8 611.02v433.85c0 10.83-1.32 9.43 9.63 9.45q49.48.08 99 0c12.07 0 12.07 0 12.07-12V174.66c-.13-7.54-.14-7.66-7.64-7.67q-51-.06-102 0c-12.62 0-11-1.42-11 11.24q-.1 216.42-.06 432.79zM374.13.02c9.2 4 19.11 5.2 28.8 7.1a535.55 535.55 0 0 1 128.39 42.83c126.1 60.3 220 153.7 285.06 277a648.44 648.44 0 0 1 58.64 158.63c12.53 54.84 17 110.57 14.52 166.66-1.29 29.56-5.65 58.91-12 87.94-23.26 105.68-71 198.11-148 274.69a487.43 487.43 0 0 1-150.42 102c-37.2 16.21-76.08 25.94-115.83 32.9a50.91 50.91 0 0 1-14.94.35c-4.72.6-9.87-1.83-14.16 1.94h-62c-11.82-1.57-23.76-2.55-35.45-4.81-87.5-16.92-161.26-58.6-221.2-124.4-58.67-64.41-94.17-140.24-109-225.86-2.58-14.89-5.45-29.78-6.32-44.93v-22c-1.22-11 3-21.36 3.92-32.13 5.53-63.06 25.87-121 62.79-172.42 57.95-80.86 134.95-129.95 236.3-135.9a225.43 225.43 0 0 1 80.87 9.65c72.25 22.56 124.43 68.76 157.41 136.66a257.91 257.91 0 0 1 24.49 87c.77 7.59 2.17 15 .46 22.78-4.15 19-19.05 33-37.75 34.62-19.34 1.72-35.55-8.68-42.59-27.66-2.08-5.59-3.38-11.46-5.08-17.2-9-30.4-25-56.55-48.82-77.55-37.85-33.34-81.93-43.87-130.26-31.13a171.39 171.39 0 0 0-85.51 53c-52 58.75-61.75 126.55-39.62 199.8a224.53 224.53 0 0 0 57.05 95c55.55 55.38 121.89 76.73 199 61.18 58.38-11.77 107-41.76 147.13-85.19 42.41-45.87 69-99.62 78.92-161.73 5.83-36.65 5-73.06-1.15-109.31a418.8 418.8 0 0 0-33.64-107.27c-21.82-46.73-51-88.08-88.94-123.09-58.18-53.6-125.91-87.25-204.4-99.17-24.13-3.68-46-13.6-63.53-31.19-36.65-36.83-47.74-81.15-33.5-130.44 13.84-48 46.11-77.6 96.11-86.24 2.14-.37 4.81.51 6.21-2.13zm4994 268c-3.65.11-7.31.32-11 .32h-261a54.59 54.59 0 0 1-6 0c-4.55-.51-7 .86-6.43 6a58.39 58.39 0 0 1 0 7v760.92c0 12.16 0 12.17-12.13 12.17h-99c-10 0-8.87 1-8.87-9.23V279.23c0-12 1.24-10.83-10.54-10.83h-265a42.91 42.91 0 0 0-6 0c-5.4.8-6.63-1.61-6.59-6.69q.33-44 0-88c0-5.22 1.37-7.45 6.73-6.77a54.5 54.5 0 0 0 7 .05h666.93c3.93 0 8 1 11.79-.94z"/><path d="M434.13 1152.02c4.29-3.77 9.44-1.34 14.16-1.94a6.92 6.92 0 0 0-.51 1.26c0 .2.23.45.35.68zM4128.3 167.48c-6.8 7.78-12.43 14.3-18.13 20.74q-158.29 178.8-316.5 357.69c-14.58 16.51-29.33 32.52-50.51 43.53 26.37 9.27 42.79 28.31 59.18 47.92q150.36 179.82 301.3 359.14 23.43 27.9 46.74 55.74c-1.46 3.34-4.16 2-6.2 2-34.66.09-69.32 0-104 .1-19 .06-33.38-7.64-45.57-22.43-24.37-29.55-49.84-58.18-74.95-87.11-76.63-88.32-153.71-176.25-229.68-265.13-18.23-21.32-39.63-31.42-66.85-31.37-17.67 0-35.34.17-53-.09-5-.08-7.6 1.14-7 6.59a62.87 62.87 0 0 1 0 7v385c-.14 7.42-.15 7.52-7.78 7.53q-52.5.06-105 0c-7.1 0-7.11-.14-7.28-7V179.42c0-14-1.79-12.36 12-12.39q49-.09 98 0c11.11 0 10-.64 10 10.42v366c0 14.94-1.74 12.61 12.69 12.56 17-.06 33.94.62 50.91-1.39 17.82-2.11 32.07-10 43.75-23.43 17.74-20.33 35.68-40.48 53.54-60.7q117.91-133.4 235.6-266.72c3.53-4 7-8 10.4-12.14 12.1-14.53 27.16-23.83 46.38-24 36.54-.42 73.17-.15 111.96-.15zM1948.46 610.02v-431c0-13.11-2.46-12 12.35-12h523c12 0 12 0 12 12.4v78c0 7.49-.12 7.63-7.73 7.64q-56 .08-112 0h-296c-11.9 0-10.91-1.17-10.92 10.54v280c0 2.91 1.42 4.2 4.33 4.1 2.66-.09 5.33 0 8 0h322c12.82 0 10.88-1.85 10.94 11.12.11 24.67 0 49.33 0 74 0 10.39.62 9.21-9 9.21h-328c-8.2 0-8.32.08-8.32 8v287c0 8 0 7.32 7.91 7.31h408c12.53 0 11.1-1.5 11.09 11.23 0 26.66-.32 53.32-.2 80 0 5.1-1.24 7.53-6.61 6.84a41.7 41.7 0 0 0-5 0h-524c-14.15 0-11.85 1.61-11.86-12.38q-.04-216.01.02-432.01zm747.34.7v-432c0-13.34-1.88-11.74 11.54-11.74q262-.06 524 0c13.37 0 11.78-1.54 11.81 11.61q.11 39.49 0 79c0 7.2-.16 7.22-7 7.41-2.33.06-4.67 0-7 0h-404c-8.59.1-8.67.11-8.67 8.78v277c0 9.88-.11 8.88 9.53 8.88h325c13.1 0 11.09-1.46 11.14 11 .11 24.67 0 49.33 0 74 0 9.84.92 9.3-9 9.3h-328c-9.2-.07-8.7-.34-8.7 8.67v285c0 9.22-.87 8.67 9.63 8.67h405c14.8 0 12.71-2 12.68 12.62 0 25.65-.42 51.3-.58 77-.06 9.3.13 8.41-9 8.41h-526a40.06 40.06 0 0 0-6 0c-5.41.8-6.65-1.62-6.58-6.69.27-18.67.11-37.33.11-56zM1604.15 266.26c-5.34-1.87-9.34-1.19-13.27-1.19q-232.49-.06-465-.07c-14 0-12 1.87-12.07-12.2-.11-26-.06-52 0-78 0-7.68.11-7.68 7.5-7.83h629c14.77 0 12.72-1.91 12.86 12.55.09 9.67-.21 19.34.06 29 .49 17.72-5.3 33.2-15.48 47.47q-80.4 112.66-160.61 225.47-166.63 234-333.26 468.09c-1.15 1.62-2.25 3.26-3.71 5.37 3.35 2.38 7 1.31 10.38 1.31q240 .09 480 .06c15.29 0 15.29 0 15.29 15.1 0 24 .07 48 0 72 0 12.24 1.93 10.78-11.34 10.93h-642c-12.33 0-12.33 0-12.33-11.9 0-9.33.45-18.69-.1-28-1-17.91 5.19-33.19 15.36-47.42q45.32-63.42 90.44-127l402.77-565.8c1.64-2.31 3.24-4.72 5.51-7.94zM4295.8 611.02V178.24c0-12.66-1.57-11.22 11.05-11.24q51-.08 102 0c7.5 0 7.51.13 7.64 7.67v867.63c0 12 0 12-12.07 12h-99c-11 0-9.62 1.38-9.63-9.45V611.02z"/></svg>